<svg width="192" height="132" fill="none" xmlns="http://www.w3.org/2000/svg"><path d="M191.995 66a66.476 66.476 0 01-9.592 34.377 65.749 65.749 0 01-27.839 25.275 62.53 62.53 0 01-6.489 2.683 65.18 65.18 0 01-49.145-2.469 65.653 65.653 0 01-27.323-23.914A66.372 66.372 0 0161.11 68.967a66.446 66.446 0 017.52-33.801A65.795 65.795 0 0192.096 9.859 65.095 65.095 0 01125.043.017a65.055 65.055 0 0133.353 8.333 65.727 65.727 0 0124.574 24.215 66.413 66.413 0 019.025 33.425V66z" fill="url(#paint0_linear)"/><path d="M100.854 106.742l-7.231-11.387s20.031-23.344 22.035-24.723c0 0-10.104 17.088-14.804 36.11z" fill="url(#paint1_linear)"/><path d="M93.623 95.356L79.99 107.572 54.91 95.356l-19.188 1.058s11.951 4.072 15.314 3.904l3.368-.168s20.597 20.02 25.333 21.547c4.736 1.528 20.294-10.445 20.294-10.445l.903-4.474-7.311-11.422z" fill="url(#paint2_linear)"/><path d="M131.241 67.868a18.402 18.402 0 01-6.024 1.751c-2.419.367-6.095-.987-6.095-.987 2.777-2.204 2.131-7.402 2.131-7.402l.061-.03c2.964-.23 5.443-1.924 7.175-3.563-.626 4.449 2.752 10.231 2.752 10.231z" fill="url(#paint3_linear)"/><path d="M131.241 51.315v3.054a18.678 18.678 0 01-2.747 3.253c-1.732 1.644-4.211 3.339-7.175 3.563a9.021 9.021 0 01-3.959-.586c-8.079-3.054-2.398-19.215-2.398-19.215 2.565-6.577 14.178-3.395 14.178-3.395 1.555 1.868 1.853 7.085 1.793 7.594a10.08 10.08 0 01-1.01 2.036s2.206-2.097 2.964-.702c.757 1.395-1.646 4.398-1.646 4.398z" fill="url(#paint4_linear)"/><path d="M131.241 54.379v-3.054s2.398-2.978 1.641-4.383c-.758-1.405-2.964.703-2.964.703.412-.638.751-1.321 1.01-2.037.06-.508-.192-5.43-1.793-7.594 0 0-11.613-3.181-14.179 3.395 0 0-3.322-.85-6.185-4.836-4.681-6.52.909-7.32 6.448-6.062 6.721 1.527 13.457-3.482 21.157 1.608 7.7 5.09.798 16.66-5.135 22.26z" fill="#262F72"/><g filter="url(#filter0_d)"><path d="M78.384 25.96H12.868c-1.584 0-2.868 1.295-2.868 2.892V89.75c0 1.597 1.284 2.891 2.868 2.891h65.516c1.584 0 2.868-1.294 2.868-2.891v-60.9c0-1.596-1.284-2.89-2.868-2.89z" fill="#fff"/></g><path d="M20.912 38.044a1.538 1.538 0 01-.677.449c-.311.108-.64.162-.97.157a1.91 1.91 0 01-.979-.244 1.634 1.634 0 01-.651-.713 2.531 2.531 0 01-.238-1.1V36.3c-.009-.387.065-.77.218-1.125.13-.301.349-.555.626-.728a2.051 2.051 0 012.156.117c.3.277.482.663.505 1.074h-.864a.868.868 0 00-.262-.545.834.834 0 00-.556-.173.782.782 0 00-.692.341c-.177.308-.26.663-.237 1.018v.275c-.022.358.068.714.258 1.018a.885.885 0 00.752.351c.256.023.51-.054.712-.213v-.749h-.808v-.656h1.697l.01 1.74z" fill="#64B5F6"/><path d="M72.83 34.191H26.404a1.03 1.03 0 00-1.025 1.033v3.757c0 .57.46 1.033 1.025 1.033H72.83a1.03 1.03 0 001.026-1.033v-3.757a1.03 1.03 0 00-1.026-1.033z" fill="#E7EEF2"/><path d="M73.855 43.303H25.38v1.018h48.475v-1.018z" fill="#BBDEFB"/><path d="M73.855 45.593H25.38v1.018h48.475v-1.018zM73.855 47.884H25.38v1.018h48.475v-1.018zM73.855 50.175H25.38v1.018h48.475v-1.018z" fill="#E7E8E9"/><path d="M73.855 54.46H25.38v1.018h48.475V54.46z" fill="#BBDEFB"/><path d="M73.855 56.751H25.38v1.018h48.475v-1.018zM73.855 59.042H25.38v1.018h48.475v-1.018zM73.855 61.332H25.38v1.018h48.475v-1.018z" fill="#E7E8E9"/><path d="M73.855 65.491H25.38v1.018h48.475v-1.018z" fill="#BBDEFB"/><path d="M73.855 67.781H25.38V68.8h48.475V67.78zM73.855 70.072H25.38v1.018h48.475v-1.018zM73.855 72.363H25.38v1.018h48.475v-1.018z" fill="#E7E8E9"/><path d="M73.855 76.522H25.38v1.017h48.475v-1.017z" fill="#BBDEFB"/><path d="M73.855 78.812H25.38v1.018h48.475v-1.018zM73.855 81.103H25.38v1.018h48.475v-1.018zM73.855 83.393H25.38v1.018h48.475v-1.018z" fill="#E7E8E9"/><path d="M148.707 92.46c3.453 10.363 6.013 22.36 7.761 32.241a52.78 52.78 0 01-1.904.952 62.53 62.53 0 01-6.489 2.682 61.304 61.304 0 01-4.64 1.436 65.187 65.187 0 01-44.505-3.905 63.508 63.508 0 01-1.702-.829 1816.098 1816.098 0 015.231-26.118c2.894-13.892 7.044-21.456 10.473-25.553l.035-.041a21.426 21.426 0 012.111-2.189.426.426 0 01.07-.066c.172-.153.344-.295.505-.433 2.066-1.695 3.469-2.005 3.469-2.005l.127.045h.07a13.12 13.12 0 003.419.85h.227c.748.073 1.501.085 2.252.036h.045a14.275 14.275 0 005.949-1.73c2.15.717 4.176 1.77 6.003 3.12 5.221 3.863 15.739 18.03 15.739 18.03l-4.246 3.476z" fill="url(#paint5_linear)"/><path d="M167.94 111.802c-.031 1.415-1.308 4.286-3.176 7.768a64.936 64.936 0 01-8.302 5.131c-.626.331-1.262.646-1.903.952a62.77 62.77 0 01-6.489 2.682l4.878-15.673L140.325 99.3l8.377-6.84 4.246-3.467s15.123 17.337 14.992 22.809z" fill="url(#paint6_linear)"/><defs><linearGradient id="paint0_linear" x1="126.788" y1="7.167" x2="124.512" y2="137.263" gradientUnits="userSpaceOnUse"><stop stop-color="#fff" stop-opacity="0"/><stop offset="1" stop-color="#64B5F6" stop-opacity=".6"/></linearGradient><linearGradient id="paint1_linear" x1="106.231" y1="68.209" x2="102.383" y2="103.452" gradientUnits="userSpaceOnUse"><stop stop-color="#42A5F5"/><stop offset="1" stop-color="#1565C0"/></linearGradient><linearGradient id="paint2_linear" x1="62.534" y1="105.322" x2="104.455" y2="110.833" gradientUnits="userSpaceOnUse"><stop stop-color="#FFE082"/><stop offset="1" stop-color="#FFA726"/></linearGradient><linearGradient id="paint3_linear" x1="9417.78" y1="2544.52" x2="9420.77" y2="2315.66" gradientUnits="userSpaceOnUse"><stop stop-color="#FFE082"/><stop offset="1" stop-color="#FFA726"/></linearGradient><linearGradient id="paint4_linear" x1="14987.3" y1="4075.82" x2="15780.5" y2="4075.82" gradientUnits="userSpaceOnUse"><stop stop-color="#FFE082"/><stop offset="1" stop-color="#FFA726"/></linearGradient><linearGradient id="paint5_linear" x1="42948.6" y1="15103.6" x2="48847.7" y2="20773.6" gradientUnits="userSpaceOnUse"><stop stop-color="#42A5F5"/><stop offset="1" stop-color="#1565C0"/></linearGradient><linearGradient id="paint6_linear" x1="23009.9" y1="12265.9" x2="22606.5" y2="9747.27" gradientUnits="userSpaceOnUse"><stop stop-color="#FFE082"/><stop offset="1" stop-color="#FFA726"/></linearGradient><filter id="filter0_d" x="0" y="19.96" width="91.252" height="86.682" filterUnits="userSpaceOnUse" color-interpolation-filters="sRGB"><feFlood flood-opacity="0" result="BackgroundImageFix"/><feColorMatrix in="SourceAlpha" values="0 0 0 0 0 0 0 0 0 0 0 0 0 0 0 0 0 0 127 0"/><feOffset dy="4"/><feGaussianBlur stdDeviation="5"/><feColorMatrix values="0 0 0 0 0 0 0 0 0 0 0 0 0 0 0 0 0 0 0.15 0"/><feBlend in2="BackgroundImageFix" result="effect1_dropShadow"/><feBlend in="SourceGraphic" in2="effect1_dropShadow" result="shape"/></filter></defs></svg>