<svg width="1366" height="150" fill="none" xmlns="http://www.w3.org/2000/svg"><mask id="a" maskUnits="userSpaceOnUse" x="0" y="0" width="1366" height="150"><path fill="#C4C4C4" d="M0 0h1366v150H0z"/></mask><g mask="url(#a)"><path fill="url(#paint0_linear)" d="M0-66.6h1366V216H0z"/><path d="M-72 58.2c69-11.7 220.7-30.42 275.5-11.7 54.8 18.72 116.833 92.2 141 126.6L827 165c-75.167-25.4-226.9-84.66-232.5-118.5-5.6-33.84 90-82.5 138.5-102.6l234 14.4c3.167 14.6 19.1 48.24 57.5 66 38.4 17.76 282-29.8 399-55.8l14.5 237.9c-44.5-38.8-147.9-117.24-205.5-120.6-57.6-3.36-229.67 43.6-308.5 67.5" stroke="#fff" stroke-opacity=".15" stroke-width="15"/><ellipse cx="88" cy="13.8" rx="9" ry="5.4" fill="#fff" fill-opacity=".2"/><ellipse cx="480" cy="69" rx="9" ry="5.4" fill="#fff" fill-opacity=".2"/><ellipse cx="602" cy="150" rx="9" ry="5.4" fill="#fff" fill-opacity=".2"/><ellipse cx="845" cy="21" rx="9" ry="5.4" fill="#fff" fill-opacity=".2"/><ellipse cx="1193" cy="120" rx="9" ry="5.4" fill="#fff" fill-opacity=".2"/><ellipse cx="1366" cy="69.6" rx="9" ry="5.4" fill="#fff" fill-opacity=".2"/><path d="M257 150c0 1.522-1.049 3.584-4.209 5.479-3.079 1.848-7.592 3.121-12.791 3.121-5.199 0-9.712-1.273-12.791-3.121-3.16-1.895-4.209-3.957-4.209-5.479 0-1.522 1.049-3.584 4.209-5.48 3.079-1.848 7.592-3.12 12.791-3.12 5.199 0 9.712 1.272 12.791 3.12 3.16 1.896 4.209 3.958 4.209 5.48zM28 102c0 1.522-1.05 3.584-4.209 5.479C20.711 109.327 16.2 110.6 11 110.6c-5.199 0-9.712-1.273-12.791-3.121C-4.951 105.584-6 103.522-6 102c0-1.522 1.05-3.584 4.209-5.48C1.289 94.673 5.8 93.4 11 93.4c5.199 0 9.712 1.272 12.791 3.12C26.951 98.416 28 100.478 28 102zM399 0c0 1.522-1.049 3.584-4.209 5.48C391.712 7.326 387.199 8.6 382 8.6c-5.199 0-9.712-1.273-12.791-3.12C366.049 3.583 365 1.521 365 0c0-1.522 1.049-3.584 4.209-5.48C372.288-7.328 376.801-8.6 382-8.6c5.199 0 9.712 1.272 12.791 3.12C397.951-3.584 399-1.522 399 0zM894 132.6c0 1.522-1.049 3.584-4.209 5.48-3.079 1.847-7.592 3.12-12.791 3.12-5.199 0-9.712-1.273-12.791-3.12-3.16-1.896-4.209-3.958-4.209-5.48 0-1.522 1.049-3.584 4.209-5.48 3.079-1.847 7.592-3.12 12.791-3.12 5.199 0 9.712 1.273 12.791 3.12 3.16 1.896 4.209 3.958 4.209 5.48zM1284 42.6c0 1.522-1.05 3.584-4.21 5.48-3.08 1.847-7.59 3.12-12.79 3.12-5.2 0-9.71-1.273-12.79-3.12-3.16-1.896-4.21-3.958-4.21-5.48 0-1.522 1.05-3.584 4.21-5.48 3.08-1.847 7.59-3.12 12.79-3.12 5.2 0 9.71 1.273 12.79 3.12 3.16 1.896 4.21 3.958 4.21 5.48z" stroke="#fff" stroke-opacity=".6" stroke-width="8"/></g><defs><linearGradient id="paint0_linear" x1="1366" y1="-36" x2="835.268" y2="719.083" gradientUnits="userSpaceOnUse"><stop stop-color="#98D0FC"/><stop offset="1" stop-color="#3481D7"/></linearGradient></defs></svg>